<?xml version="1.0" encoding="utf-8"?>
<!-- Generator: $$$/GeneralStr/196=Adobe Illustrator 27.6.0, SVG Export Plug-In . SVG Version: 6.00 Build 0)  -->
<svg version="1.1" id="Calque_1" xmlns="http://www.w3.org/2000/svg" xmlns:xlink="http://www.w3.org/1999/xlink" x="0px" y="0px"
	 viewBox="0 0 256 256" style="enable-background:new 0 0 256 256;" xml:space="preserve">
<style type="text/css">
	.st0{fill:#FFFFFF;}
</style>
<g>
	<path class="st0" d="M92,201.5c-2.3-0.4-5.8-0.9-7.9,0.4c-2.5,1.5-1.7,5.1-1.7,7.6c0,2.9,0,5.3,2.1,7.5c2,2.1,4.5,3.9,6.6,5.8
		c1.5,1.3,4.6,4.2,6.6,2.2c1.7-1.7,0.8-6.3,0.8-8.5C98.5,210.7,99.3,202.8,92,201.5z"/>
	<path class="st0" d="M159.2,222c-2.7-0.8-6.4-0.1-9.2-0.1c-3,0-6,0-9,0c-6,0-12,0-18,0c-3,0-6.1,0-9.1,0.2c-2.7,0.2-3,1.2-4.7,3.1
		c-1.5,1.6-3.5,2.4-5.5,2.9c-1.5,0.4-4.6,0.2-4.3,2.5c0.2,1.6,3.6,4.2,4.6,5.3c1.8,1.9,3.6,3.8,5.4,5.7c1.5,1.6,3.2,4.2,4.8,5.5
		c1.4,1.1,3.7,0.7,5.6,0.7c5.7,0,11.4,0,17.1,0c6.7,0,13.5,0.1,20.2,0c6.7-0.1,4.8-8.1,4.8-12.9C162.1,231.2,163.9,223.4,159.2,222z
		"/>
	<path class="st0" d="M236.9,221.9c-2.6,0-6.3-0.8-8.1,1.6c-1.5,2-1.9,4-4.3,5.4c-2.4,1.4-5.4,1.7-7.9,0.6c-2.3-1-3.7-2.8-4.9-4.9
		c-1.4-2.5-2.7-2.6-5.5-2.6c-6.6,0-13.2,0-19.9,0c-4.4,0-12.7-2-13.2,4.2c-0.2,3.3,0,6.8,0,10.1c0,2.7-0.5,5.9,0.1,8.6
		c0.7,3.5,4,3,6.8,3c3.2,0,6.4,0,9.6,0c6.4,0,12.9,0,19.3,0c12.9,0,25.8,0,38.7,0c0-8.7,0-17.2,0-25.8
		C244.1,221.7,240.5,221.9,236.9,221.9z"/>
	<path class="st0" d="M236.4,13.5c2,2.4,2.9,5.7,3.2,8.8c0.3,2.8-0.8,7.1,0.4,9.7c1.3,2.9,5.2,2.1,7.7,2.2
		c0.3-2.8,0.1-25.2-0.1-26.1c-2.1,0-17.2-1.2-17.7,1C230.9,11.2,234.8,11.5,236.4,13.5z"/>
	<path class="st0" d="M213.6,32c2,2.5,5.2,4.9,7.7,6.9c1.7,1.4,5,3.9,6.5,0.9c1.1-2.1,0.4-5.7,0.4-7.9c-0.2-4.9,0.9-12.6-5.1-14.6
		c-2.1-0.7-7-1-9-0.2c-2.5,1-2.1,4-2.1,6.2C212,26.4,211.6,29.5,213.6,32z"/>
	<path class="st0" d="M10,221.9c-0.1,0.1-0.2,0.1-0.3,0.2c-1.8,3.6-1.3,9.2-1.2,13.1c0.1,4.2-0.2,8.6,1.2,12.6
		c3.7,0,5.9-0.1,6.6-4.1c0.6-3.3,1.1-6.7,1.5-10c0.3-2.7,2.2-7.5,0.8-10C17.2,220.9,12.5,221.9,10,221.9z"/>
	<path class="st0" d="M45.6,235.6c-1.8-1.5-5.1-0.9-7.2-0.9c-2.3,0-5.5-0.7-7.5,0.5c-2.2,1.3-1.9,3.9-2.2,6.1
		c-0.3,2.1-0.7,4.6,1.4,6c1.9,1.2,5.8,0.6,8,0.6c2.2,0,5.7,0.7,7.7-0.4c2.3-1.2,1.9-3.6,1.7-5.8C47,239.7,47.2,237,45.6,235.6z"/>
	<path class="st0" d="M70.6,224c-1.4-2.7-5.5-2.1-8.1-2.1c-3,0-5.5,0.4-5.5,3.8c0,2.9,0.7,6.1,1.2,9c0.6,3.2,0.6,6.9,1.5,10
		c0.8,3,3.1,3.4,5.8,3.3c2.8-0.1,4.9-0.7,5.4-3.7c0.4-3.1,0.1-6.3,0.1-9.4C71.1,231.8,72,226.7,70.6,224z"/>
	<path class="st0" d="M92,236.6c-1.5-1.6-3.6-4.6-5.7-5.5c-5.2-2.2-3.9,6.8-3.9,9.5c0,1.7-0.5,5,0.8,6.4c1.5,1.5,5.2,0.8,7,0.8
		c0,0,0,0,0,0c1.9,0,5.5,0.7,7.1-0.7c1.6-1.4,0.8-3.7-0.3-5.1C95.6,240.1,93.6,238.3,92,236.6z"/>
	<path class="st0" d="M37.9,227.1c2.8,0,6.6,0.7,7.1-3c0.2-1.8-0.6-3.9-0.8-5.8c-0.3-2.1-0.4-4.1-0.6-6.2c-0.5-3.9-0.9-7.7-1.5-11.6
		c-0.4-2.8-0.9-7.3-4.7-6.6c-3.7,0.7-3.6,6.1-3.9,9c-0.4,3.5-0.8,7-1.2,10.4c-0.3,3.2-1.6,7-1.4,10.2
		C30.9,227.6,35,227.1,37.9,227.1z"/>
	<path class="st0" d="M10.2,171.1c0,6.2,0,12.4,0,18.6c0,2.1-0.9,3.1-1.2,5.1c-0.4,2.4-0.4,5-0.5,7.4c-0.1,3,0,6,0.2,9
		c0.2,2.3-0.2,5.2,1.2,7.1c2.7,0,7,0.9,9.3-0.8c2-1.5,1.9-5.2,2.2-7.5c0.6-3.4,1-6.9,1.6-10.3c0.5-3.2,1.2-5.1-1.5-7.1
		c11,0,21.8,0,32.8,0c-4.1,2.9-0.9,10.4-0.4,14.6c0.3,2.6,0.4,6.2,1.5,8.7c1.2,2.8,3.9,2.6,6.5,2.6c2.5,0,6.4,0.8,8.2-1.4
		c1.7-2.2,0.9-6,0.9-8.5c0-4.8,1.8-12.9-2.6-15.9c10.9,0,21.5,0,32.2,0c-1.3,2.1,2.2,2.5,3.5,3.2c2.1,1.2,3.5,3.3,4.4,5.5
		c1,2.5,1.3,5.1,1.3,7.8c0,2.1-0.5,5,0.2,7c1,2.7,3.7,2.4,6,2.4c3,0,5.9,0,8.9,0c6,0,11.9,0,17.9,0c3.2,0,6.4,0,9.6,0
		c2.3,0,5.4,0.6,7.5-0.4c1.9-1,2-2.8,2.1-4.7c0.1-2.3,0.6-6.2-0.4-8.4c-1.9-4.2-9.6-1.3-13-2.2c-2.4-0.6-3.4-2.4-4.1-4.6
		c-0.4-1.1-2.2-4.6-1.9-5.5c16.4,0,32.8,0,49.2,0c-1.9,4.6-1.2,9.7-7.4,10.2c-4.7,0.4-11.2-1.9-11.4,4.6c-0.2,4.6-1.3,10.8,4.7,11
		c6.1,0.2,12.1,0.1,18.2,0c3.2,0,6.4,0,9.7,0c2.1,0,4.2,0.4,5.6-1.5c1.4-1.9,1.7-3.6,3.8-5.1c1.8-1.2,3.9-1.7,6.1-1.4
		c2.5,0.3,4.7,1.5,6.2,3.6c1.2,1.7,1.4,3.9,3.7,4.4c2.6,0.6,5.9,0,8.7,0c2.7,0,5.4,0.1,8.1,0c0-10.2,0-20.4,0-30.6
		c0-10.6,0.5-21.3-0.1-31.8c0.6-8.5,0.1-17.3,0.1-25.9c-2.4,0-4.8-0.4-5.8,2.3c-0.8,2.4-0.2,5.9-0.2,8.3c0,3,0,6,0,9
		c0,1.9-0.3,5.1,2.1,5.7c0,0.1,0,0.2,0,0.2c-0.3,0-0.7,0-1,0c-8.4,0-16.8,0-25.1,0c0-0.1,0-0.2,0-0.3c3.7-0.9,0.9-7.8,0.3-10.1
		c-0.9-3.9-1.7-7.7-2.6-11.6c-0.9-4-1.8-8-2.7-12c-0.5-2.4-0.7-8.1-2.9-9.7c-3.8-2.7-3,5.6-3,7.2c0,4.4,0,8.7,0,13.1
		c0,4.4,0,8.7,0,13.1c0,1.8-1.2,9.6,1.5,10.1c0,0.1,0,0.2,0,0.3c-4.2,0-8.4,0-12.6,0c4.2-3,2.6-10.3,2.6-14.9c0-2.4,0.5-5.5-0.2-7.8
		c-0.8-2.8-2.9-2.9-5.4-3c-5.8-0.2-11.6,0-17.5,0c-6.3,0-12.7-0.4-18.9,0.1c-2.2,0-5.8-0.9-7.3,1.2c-1.4,1.9-0.7,5.2-0.7,7.3
		c0,3.2,0,6.3,0,9.5c0,2.4-0.8,6.2,2,7.4c0,0.1,0,0.2,0,0.3c-5.2,0-10.4,0-15.6,0c0-0.1,0-0.2,0-0.3c3.9-0.4,2.2-11.8,2.2-14.3
		c0-2.6,0.7-6.5-0.4-8.9c-1.2-2.6-3.8-2.2-6.3-2.2c-12.3-0.2-25-0.9-37.3,0c-1.5,0-2.9,0-4.4,0c-2,0-3.1,1.8-3.1,3.5
		c0,6.2,0,12.4,0,18.6c0,1.5,0.5,2.7,2,3.3c0,0.1,0,0.2,0,0.3c-4.1,0-8.3,0-12.4,0c3.3-2.2,1.9-8.4,1.9-11.8c0-5.1,0-10.3,0-15.4
		c0-5.1,0.1-10.3,0-15.4c0-1.2,0.2-3.9-0.9-4.8c-1.4-1.1-2.6,0.2-3.3,1.4c-1.8,3.3-1.8,8.3-2.6,11.9c-0.8,4-1.7,8-2.4,12
		c-0.7,4-1.6,7.9-2.4,11.9c-0.5,2.5-2.9,8.6,0.5,9.9c0,0.1,0,0.2,0,0.3c-9.5,0.4-19.5,0.6-28.9,0c0-0.1,0-0.1,0-0.2
		c3.7-1.5,1.2-6.9,0.7-9.7c-0.9-4.4-1.8-8.7-2.6-13.1c-0.9-4.2-1.7-8.5-2.5-12.7c-0.6-2.9-0.7-9-2.9-11.1c-3.9-3.9-3.4,5.5-3.4,7.2
		c0,4.5,0,9.1,0,13.6c0,4.8,0,9.5,0,14.3c0,3-1.4,9.5,1.4,11.6c0,0.1,0,0.2,0,0.2c-4.1,0-8.2,0-12.3,0c0-0.1,0-0.2,0-0.3
		c2.3-0.9,2.3-3,2.3-5.1c0-3.2,0-6.4,0-9.5c0-3.7,1.5-10.2-3.6-10.8c-2-0.2-4-0.6-4.9,1.1c-1.2,2-0.8,5.8-0.8,8
		c-0.1,4.7-0.9,11,0.8,15.5C11.2,159.5,10.2,165.7,10.2,171.1z"/>
	<path class="st0" d="M0,0c0,85.4,0,170.7,0,256c85.4,0,170.7,0,256,0c0-85.4,0-170.7,0-256C170.6,0,85.4,0,0,0z M252.2,252.2
		c-82.8,0-165.6,0-248.5,0c0-82.8,0-165.6,0-248.5c82.8,0,165.6,0,248.5,0C252.2,86.6,252.2,169.4,252.2,252.2z"/>
	<path class="st0" d="M8.7,120.5c0.1,1.4-0.1,3.9,0.8,5c1.8,2.1,7,0.4,8-1.9c1.4-3.4,0.3-9.3,0.3-12.9c0-2.1,0.3-4.5,0-6.6
		c-0.2-1.6-1.3-2.1-1.8-3.3c0-0.2,0-0.3,0-0.5c3.6,0,7.3,0,10.9,0c5.1,0,10.3,0,15.4,0c0,0.1,0,0.1,0,0.2c-3.1,3-1,7.5-0.2,11.4
		c0.9,4.5,1.8,9,2.7,13.5c0.9,4.3,1.7,8.7,2.6,13c0.6,3,0.5,10.3,5,9.8c3.1-2.1,3.1-8.2,3.7-11.5c0.8-4,1.6-7.9,2.4-11.9
		c0.9-4.4,1.7-8.9,2.6-13.3c0.7-3.2,3.1-8.6-0.1-10.9c0-0.1,0.1-0.2,0.1-0.3c4.7,0,9.4,0,14.1,0c4.1,0,8.5-0.5,12.5,0.2
		c-2.8,1.6-2.2,4.8-2.2,7.6c0,2.9,0,5.9,0,8.8c0,2.2-0.6,5.4,0.5,7.4c1.5,2.5,4.5,1.7,6.9,1.7c0.1,0,0.2,0,0.3,0c0.1,0,0.2,0,0.2,0
		c13.4,0,26.8,0,40.2,0c0.3,0,0.6-0.1,0.9-0.2c1.6-0.7,2.4-2,2.4-3.6c0.1-6,0.1-12,0-17.9c0-1.4-0.4-2.7-1.8-3.5c0-0.2,0-0.3,0-0.5
		c5,0,10,0,15,0c0,0.1,0.1,0.2,0.1,0.3c-1.6,0.8-2.1,2.1-2.1,3.7c0,6.1,0,12.3,0,18.4c0,1.6,1.6,3.4,3.4,3.4c1.5,0,3.1,0,4.6,0
		c0.1,0,0.2,0,0.3,0c11.9,0.4,23.8,0,35.7,0c6.7,0,5.9-4.6,5.9-10.2c0-2.7,0-5.5,0-8.2c0-2.6,0.4-5.3-2-7c0-0.1,0-0.3,0-0.4
		c2.9,0,5.9,0,8.8,0c5.5,0,11,0,16.6,0c0,0.1,0,0.3,0,0.4c-3.2,2.2-0.4,7.9,0.3,10.8c0.9,4,1.8,7.9,2.6,11.9
		c0.8,3.6,1.6,7.2,2.4,10.9c0.5,2.4,0.7,8.4,2.9,9.9c3.6,2.4,3.2-5.2,3.2-6.8c0-4.6,0-9.2,0-13.9c0-4.4,0-8.7,0-13.1
		c0-2.5,1.1-7.9-1.4-9.6c0-0.1,0-0.3,0-0.4c4,0,8,0,12,0c0,0.1,0,0.1,0,0.2c-3.8,3-2.1,10.9-2.1,15.4c0,2.3-0.6,6,0.2,8.1
		c1,2.5,3.6,1.9,5.7,2.1c0-20.8,0.8-41.8,0-62.6c0-0.1,0-0.2,0-0.2c0.3-4.2,0-8.5,0-12.7c0-4.3,0.3-8.6-0.1-12.9
		c-1.7,0-4.7-0.6-6.3,0.3c-1.3,0.7-1.9,2.4-3.1,3.4c-1.6,1.3-3.7,2.1-5.7,2.5c-1.3,0.3-3.3,0.2-3.4,2c-0.1,1.6,2.6,3.5,3.6,4.5
		c1.5,1.6,3,3.1,4.5,4.7c2.5,2.6,4.9,6.2,8.1,8c0,0.1,0,0.2,0,0.2c-6.3,0-12.7,0-19.4,0c4.4-2.1,0.1-6.4-1.8-8.4
		c-2.3-2.5-4.9-6.5-8-8c-3.8-1.8-4.2,2-4.2,4.8c-0.1,2.6-1.1,8.7,0.8,10.8c0.1,0.1,0.1,0.1,0.2,0.2c0.2,0.1,0.5,0.2,0.7,0.4
		c0,0.1,0,0.2,0,0.2c-5.1,0-10.3,0-15.4,0c3.8-3.1,2.3-9.3,2.3-13.7c0-2.8,0.6-6.2-0.1-8.9c-0.8-3-3.2-3.1-5.9-3.2
		c-6.4-0.2-12.8,0-19.2,0c-6.3,0-12.8-0.4-19.1,0.1c-2.3-0.6-6.4-0.3-8.8-0.1c-1.2,0.1-3.1,0.2-3.6,1.7c-1.2,4.1,8.1,3,6.4,8.2
		c-1.4,4.2-6.2,7.7-9.8,9.8c-2,1.1-4.3,1.5-6.3,2.7c-2,1.2-1.7,1.6-1.1,3.5c-2.9,0-5.9,0-8.8,0c1.9-2.9-2.1-3.7-4.1-4.6
		c-2.8-1.1-5.4-2.6-7.7-4.6c-2-1.8-3.8-3.8-5.2-6.1c-1.6-2.7-1.8-6.2-3.6-8.7c-1.7-2.5-4.8-1.8-7.5-1.8c-3.2,0-6.4,0-9.5,0
		c-7,0-14.5-0.8-21.4,0.1c-5.2,0-3.7,8.6-3.7,11.7c0,2.8,0,5.7,0,8.5c0,1.9-0.4,4.2,1.7,5.1c0,0.1,0,0.2,0,0.3c-1.7,0-3.4,0-5.1,0
		c1.2-1.7-0.6-5.3-1.4-6.9c-1-1.9-2.5-3.7-5-3.1c-1.6,2-3.3,3.8-5.6,5.2c-1.5,0.9-6.4,1.9-4.3,4.5c0,0.1,0,0.2,0,0.3
		c-3,0-5.9,0-8.9,0c3-2.9-3.1-4.1-4.8-4.9c-2.5-1.1-4.8-2.6-6.9-4.4c-4.1-3.5-6-7.8-7.9-12.7C13.2,40,12,37,10,37.8
		c-1.8,0.7-1.4,5.8-1.4,7.5c-0.1,3.3-0.2,6.5-0.1,9.8c0.1,2.5-0.2,6.4,1.6,8.3c0,0.1,0,0.2,0.1,0.2c-0.1,9.3,0,18.6,0,27.8
		c0,2.3,0.1,4.5,0,6.8c0,1.6-0.6,2.4-1.1,3.8c-1.1,3.4-0.7,7.8-0.6,11.3C8.6,115.7,8.6,118.1,8.7,120.5z"/>
	<path class="st0" d="M136.2,12.5c3,1.1,5.7,2.4,8.3,4.4c2.2,1.7,5,4.4,6,7.1c1.2,3.2-1.7,4.1-4.1,5.5c-2.3,1.3-3.4,3.8,0,4.5
		c3.1,0.6,6.9,0,10,0c0.1,0,0.2,0,0.3,0c10,0.4,20,0,30,0c3.2,0,9.6,1.3,12.3-0.7c2.9-2,1.6-8,1.6-10.9c0-2.5,0-5,0-7.5
		c0-1.8,0.4-4.3-1-5.7c-2.3-2.3-9.5-1.1-12.5-1.1c-10.2,0-20.5-0.4-30.7,0.1c-3.1-0.7-7.1-0.1-10.3-0.1c-3.6,0-7.9-0.7-11.4,0
		C130.6,8.8,134.1,11.7,136.2,12.5z"/>
	<path class="st0" d="M9.7,33.8c3.7,0.9,4.6-5.1,5.5-7.4c1.3-3.3,3.4-6.2,6-8.6c2.8-2.6,6-4.2,9.6-5.5c2.7-1,5.1-3.9,0.7-4.2
		c-4.5-0.3-9.2,0-13.7,0c-2.1,0-4.9-0.5-6.9,0C9.5,8.4,9.4,8.7,9,10.3c-0.8,3.9-0.6,8.1-0.6,12C8.5,26.1,8.4,30.2,9.7,33.8z"/>
	<path class="st0" d="M118.4,44.7c2.9,3.5,7.6,5.5,12.2,4.9c2.5-0.3,11-3.5,8.6-7.2c-1-1.5-4.8-1.7-6.3-1.8c-2.5-0.2-5-0.1-7.5-0.1
		c0,0,0,0,0,0C122.1,40.4,114,39.3,118.4,44.7z"/>
	<path class="st0" d="M27.7,26.2c-6.9,7.6-3.4,20.4,6.6,23.1c4.1,1.1,9.5,0.3,12.9-2.3c1-0.8,4-4,3.3-5.6c-0.7-1.6-6.3-0.8-7.6-0.8
		c0,0,0,0,0,0c-2.3,0-5.9,0.8-7.9-0.6c-1.8-1.2-2-4.6-1.3-6.5c1.9-4.8,10-0.2,13.3-2.9c4.4-3.5-2.9-7.7-5.9-8.4
		C36.3,21,31,22.5,27.7,26.2z"/>
	<path class="st0" d="M118.4,26.9c-4.3,5.3,3.6,4.2,6.9,4.2c2.9,0,13.1,1.1,14.3-2.6c1.2-3.9-7.1-6.2-9.6-6.4
		C125.5,21.8,121.2,23.4,118.4,26.9z"/>
	<path class="st0" d="M45,12.4c2.8,1.1,5.5,2.2,8,4.1c1.9,1.4,5.5,4.6,4.7,7.3c-0.8,2.8-5.6,2.3-6.6,4.8c-1.4,3.3,3.6,2.7,5.2,2.8
		c3.2,0.2,6.2,3,9.3,2.5c0.1,0,0.2,0,0.3,0c6.3,0.4,12.7,0,19,0c2.8,0,5.6,0,8.4,0c2.5,0,6.4,0.7,8.8-0.1c2.1-0.7,2.7-2.8,3.3-4.7
		c0.9-2.5,1.8-4.8,3.3-7c2.6-3.8,6.4-7,10.6-8.8c1.6-0.7,5.6-1.2,6-3.3c0.4-2.3-2.6-2-4-2c-6,0-12.1,0-18.1,0
		C90.6,8,78,7.5,65.5,8.1C61.7,7.7,57.7,8,53.8,8c-2.9,0-8.1-1-10.7,0.1C39.8,9.6,43.1,11.7,45,12.4z"/>
</g>
</svg>
